<svg aria-hidden="true" style="position: absolute; width: 0; height: 0; overflow: hidden;" version="1.1" xmlns="http://www.w3.org/2000/svg" xmlns:xlink="http://www.w3.org/1999/xlink">
<defs>
<symbol id="icon-arrow" viewBox="0 0 32 32">
<path d="M13.625 1.688c-7.013 1.2-12.125 7.238-12.125 14.313 0 5.962 3.612 11.262 9.188 13.488 1.875 0.738 3.025 0.95 5.313 0.95s3.438-0.212 5.313-0.95c3.775-1.5 6.675-4.4 8.175-8.175 0.738-1.875 0.95-3.025 0.95-5.313s-0.212-3.438-0.95-5.313c-1.913-4.787-6.125-8.188-11.175-9-1.35-0.225-3.4-0.225-4.688 0zM20.025 10.838c4.3 4.3 4.337 4.35 3.65 4.9-0.3 0.238-0.5 0.262-2.125 0.262h-1.788l-0.075 6.65-0.413 0.363-0.4 0.363h-5.75l-0.4-0.363-0.412-0.363-0.075-6.65h-1.775c-2.063 0-2.375-0.1-2.438-0.738-0.037-0.412 0.125-0.6 3.938-4.412 2.188-2.188 4-3.975 4.037-3.975s1.85 1.787 4.025 3.963z"></path>
</symbol>
</defs>
</svg>
